# xmcd CD database file
#
# Track frame offsets:
#	150
#	18115
#	33982
#
# Disc length: 691 seconds
#
# Revision: 0
# Processed by: cddbd v1.5PL3 Copyright (c) Steve Scherf et al.
# Submitted via: CDex 1.50beta10
#
DISCID=1502b103
DTITLE=ブリーフ＆トランクス - ひとりのうた＞ヽ(`Д')ﾉ
DYEAR=1999
DGENRE=Comedy
TTITLE0=ひとりのうた
TTITLE1=カテキン
TTITLE2=ひとりのうた(オリジナルカラオケ細根君ハモリ付き)
EXTD=YEAR: 1999
EXTT0=
EXTT1=
EXTT2=
PLAYORDER=
